<?xml version="1.0" standalone="no"?>
<!DOCTYPE svg PUBLIC "-//W3C//DTD SVG 20010904//EN"
 "http://www.w3.org/TR/2001/REC-SVG-20010904/DTD/svg10.dtd">
<svg version="1.0" xmlns="http://www.w3.org/2000/svg"
 width="70.000000pt" height="70.000000pt" viewBox="0 0 70.000000 70.000000"
 preserveAspectRatio="xMidYMid meet">
<metadata>
Created by potrace 1.11, written by Peter Selinger 2001-2013
</metadata>
<g transform="translate(0.000000,70.000000) scale(0.100000,-0.100000)"
fill="#000000" stroke="none">
<path d="M239 686 c-113 -40 -180 -163 -150 -276 24 -89 95 -159 179 -176 32
-6 32 -6 32 34 0 39 -2 42 -45 61 -62 28 -87 70 -83 141 4 61 25 98 70 124 14
9 29 16 32 16 3 0 6 -34 6 -75 0 -43 4 -75 10 -75 6 0 10 47 10 120 0 131 2
129 -61 106z"/>
<path d="M330 599 c0 -76 3 -100 13 -97 7 3 13 26 15 56 l3 52 29 -15 c65 -34
95 -117 66 -185 -18 -43 -40 -64 -89 -85 l-37 -15 1 -158 0 -157 18 51 c25 69
45 105 111 204 84 126 93 147 93 215 0 74 -25 128 -85 179 -37 32 -90 56 -125
56 -10 0 -13 -27 -13 -101z"/>
</g>
</svg>
